<svg xmlns="http://www.w3.org/2000/svg" data-name="Layer 2" viewBox="0 0 100 125" x="0px" y="0px"><title>Chemex</title><path d="M26.048,71.721A12.03,12.03,0,0,0,37.634,87H62.366A12.03,12.03,0,0,0,73.952,71.721c-.014-.048-.028-.1-.046-.144L65.932,49.6a6.02,6.02,0,0,0,1.78-6.706l-1.935-4.829,2.194-4.62c.01-.02.019-.04.027-.06A5.964,5.964,0,0,0,66.684,26.7l4.747-10.9A2,2,0,0,0,69.6,13H30.4a2,2,0,0,0-1.834,2.8l4.744,10.9a6,6,0,0,0-1.286,6.745l2.194,4.621-1.956,4.885a6,6,0,0,0,1.8,6.655l-7.968,21.97C26.076,71.625,26.062,71.673,26.048,71.721ZM33.454,17H66.546l-3.492,8.025c-.184-.017-.37-.025-.558-.025H37.5c-.187,0-.374.008-.558.025ZM44.891,45.664a2,2,0,0,0,2.773-.555L50,41.605l2.336,3.5a2,2,0,1,0,3.328-2.219L53.737,40h8.507l1.735,4.327a2,2,0,0,1-1.218,2.553A1.8,1.8,0,0,1,62.1,47H37.9a1.861,1.861,0,0,1-.707-.136,1.974,1.974,0,0,1-1.2-2.48L37.756,40h8.507l-1.927,2.891A2,2,0,0,0,44.891,45.664ZM62.332,36H37.667l-2-4.208A1.994,1.994,0,0,1,37.5,29H62.5a1.994,1.994,0,0,1,1.847,2.767ZM29.881,72.867,37.815,51H62.184l7.936,21.868A8.03,8.03,0,0,1,62.366,83H37.634a8.03,8.03,0,0,1-7.753-10.133Z"/><text x="0" y="115" fill="#000000" font-size="5px" font-weight="bold" font-family="'Helvetica Neue', Helvetica, Arial-Unicode, Arial, Sans-serif">Created by biro.37</text><text x="0" y="120" fill="#000000" font-size="5px" font-weight="bold" font-family="'Helvetica Neue', Helvetica, Arial-Unicode, Arial, Sans-serif">from the Noun Project</text></svg>