<svg xmlns="http://www.w3.org/2000/svg" data-name="Layer 2" viewBox="0 0 64 80" x="0px" y="0px"><title>COFFEE STUFF OK</title><path d="M51.25,20.49H45.77V18.72a1.84,1.84,0,0,0-.59-1.35,1.84,1.84,0,0,0-1.26-3.2H33.5V9.91h1.24a1.85,1.85,0,0,0,0-3.7H29.26a1.85,1.85,0,0,0,0,3.7H30.5v4.26H20.08a1.84,1.84,0,0,0-1.26,3.2l-.1.1a14.71,14.71,0,0,0-3.43-.35c-1.4,0-4.6.13-4.77,1.3a.49.49,0,0,0,0,.07s0,0,0,0a.64.64,0,0,0,0,.09.47.47,0,0,0,0,.06.83.83,0,0,0,.32.47c1.1,1.43,5.88,7.71,7.26,11.48a.48.48,0,0,0,.12.15V56.09c0,2.38,12.36,2.45,13.77,2.45s13.77-.07,13.77-2.45V41.5h5.47a2.88,2.88,0,0,0,2.88-2.88V23.37A2.88,2.88,0,0,0,51.25,20.49Zm-5.47,3h5.35v15H45.77ZM28.42,8.06a.85.85,0,0,1,.85-.85h5.47a.85.85,0,0,1,0,1.7H29.26A.85.85,0,0,1,28.42,8.06ZM31.5,9.91h1v4.26h-1ZM19.23,16a.85.85,0,0,1,.85-.85H43.92a.85.85,0,0,1,0,1.7H20.08A.85.85,0,0,1,19.23,16ZM32,51.17a1.5,1.5,0,0,0,1.5-1.49v-.94c5.84.13,8.85,1,9.3,1.43-.5.52-4.07,1.45-10.8,1.45s-10.3-.93-10.8-1.45c.45-.47,3.46-1.3,9.3-1.43v.94A1.5,1.5,0,0,0,32,51.17Zm.5-1.49a.5.5,0,0,1-1,0V17.87h1Zm-2-31.81V47.74c-2.48.06-10.33.41-10.33,2.43,0,2.38,10.62,2.45,11.83,2.45s11.83-.07,11.83-2.45c0-2-8-2.37-10.33-2.43V17.87H43.92a.85.85,0,0,1,.85.85V52.55c-.51.63-5.28,1.51-12.77,1.51s-12.37-.91-12.77-1.45V18.72a.85.85,0,0,1,.85-.85Zm-15.21.25a14.73,14.73,0,0,1,3,.27,1.85,1.85,0,0,0,0,.26,14.84,14.84,0,0,1-2.94.26,12.21,12.21,0,0,1-3.5-.4A12.21,12.21,0,0,1,15.29,18.12Zm-2.74,1.6a17.86,17.86,0,0,0,2.74.19,16.59,16.59,0,0,0,2.94-.24v8.75A67.3,67.3,0,0,0,12.55,19.72Zm6.68,36.36V53.66c3,1.36,11.61,1.41,12.77,1.41s9.81,0,12.77-1.41V56c-.51.63-5.28,1.51-12.77,1.51S19.63,56.63,19.23,56.09Zm33.9-17.47a1.88,1.88,0,0,1-1.88,1.88H45.77v-1h5.47a.88.88,0,0,0,.88-.88V23.37a.88.88,0,0,0-.88-.88H45.77v-1h5.47a1.88,1.88,0,0,1,1.88,1.88Z"/><text x="0" y="79" fill="#000000" font-size="5px" font-weight="bold" font-family="'Helvetica Neue', Helvetica, Arial-Unicode, Arial, Sans-serif">Created by Edwin Ihsani</text><text x="0" y="84" fill="#000000" font-size="5px" font-weight="bold" font-family="'Helvetica Neue', Helvetica, Arial-Unicode, Arial, Sans-serif">from the Noun Project</text></svg>