<svg xmlns="http://www.w3.org/2000/svg" xmlns:xlink="http://www.w3.org/1999/xlink" version="1.1" x="0px" y="0px" viewBox="0 0 100 125" style="enable-background:new 0 0 100 100;" xml:space="preserve"><g><path d="M78,62.8v-6.8h15c1.1,0,2-0.9,2-2s-0.9-2-2-2H76h-7.9L94.8,3.7c0.3-0.6,0.3-1.4,0-2c-0.4-0.6-1-1-1.7-1H7   c-0.7,0-1.4,0.4-1.7,1c-0.4,0.6-0.4,1.4,0,2l26.6,48.4H24H7c-1.1,0-2,0.9-2,2s0.9,2,2,2h15v6.8c0,1.1,0.9,2,2,2h52   C77.1,64.8,78,63.9,78,62.8z M26,56.1h9.2h29.5H74v4.8H26V56.1z M89.6,4.8l-26,47.3H36.4l-26-47.3H89.6z"/><path d="M50,68.9c-0.7,0-1.3,0.3-1.7,0.9c-1.5,2.2-8.9,13.7-8.9,18.8c0,5.8,4.8,10.6,10.6,10.6s10.6-4.8,10.6-10.6   c0-5.1-7.4-16.6-8.9-18.8C51.3,69.2,50.7,68.9,50,68.9z M43.4,88.6c0-2.5,3.6-9.1,6.6-14c3,4.9,6.6,11.5,6.6,14   c0,3.6-3,6.6-6.6,6.6S43.4,92.3,43.4,88.6z"/></g><text x="0" y="115" fill="#000000" font-size="5px" font-weight="bold" font-family="'Helvetica Neue', Helvetica, Arial-Unicode, Arial, Sans-serif">Created by mikicon</text><text x="0" y="120" fill="#000000" font-size="5px" font-weight="bold" font-family="'Helvetica Neue', Helvetica, Arial-Unicode, Arial, Sans-serif">from the Noun Project</text></svg>